<svg width="3562" height="945" viewBox="0 0 3562 945" fill="none" xmlns="http://www.w3.org/2000/svg">
<mask id="mask0_36_224" style="mask-type:alpha" maskUnits="userSpaceOnUse" x="0" y="0" width="3562" height="945">
<path d="M857.462 944.644C823.664 944.644 793.544 938.781 767.104 927.056C740.663 915.1 719.74 897.512 704.336 874.291C689.161 850.84 681.574 821.641 681.574 786.694C681.574 757.266 686.977 732.55 697.783 712.548C708.589 692.545 723.304 676.452 741.927 664.266C760.551 652.081 781.703 642.884 805.385 636.677C829.297 630.469 854.358 626.101 880.569 623.572C911.378 620.353 936.209 617.364 955.062 614.605C973.916 611.616 987.596 607.248 996.103 601.5C1004.61 595.752 1008.86 587.246 1008.86 575.98V573.911C1008.86 552.069 1001.97 535.17 988.171 523.215C974.606 511.26 955.292 505.282 930.231 505.282C903.791 505.282 882.753 511.145 867.118 522.87C858.441 529.25 851.393 536.551 845.973 544.773C838.35 556.338 826.16 565.518 812.353 564.397L733.282 557.975C715.749 556.551 703.268 539.894 709.719 523.528C717.25 504.422 727.642 487.189 740.893 471.83C761.126 448.149 787.221 429.986 819.18 417.34C851.369 404.465 888.616 398.028 930.921 398.028C960.351 398.028 988.516 401.476 1015.42 408.374C1042.55 415.271 1066.57 425.962 1087.5 440.447C1108.65 454.931 1125.32 473.554 1137.5 496.315C1149.69 518.847 1155.78 545.861 1155.78 577.359V905.508C1155.78 921.599 1142.74 934.643 1126.65 934.643H1045.59C1029.5 934.643 1016.45 921.599 1016.45 905.508V863.756C1016.45 862.337 1015.3 861.186 1013.88 861.186C1012.92 861.186 1012.04 861.726 1011.59 862.578C1003.16 878.559 992.024 892.695 978.169 904.984C963.914 917.4 946.785 927.171 926.782 934.298C906.779 941.195 883.673 944.644 857.462 944.644ZM899.537 843.253C921.149 843.253 940.233 838.999 956.787 830.493C973.341 821.756 986.331 810.031 995.758 795.316C1005.18 780.602 1009.9 763.933 1009.9 745.31V709.852C1009.9 700.915 999.456 694.694 990.93 697.374C983.113 699.673 974.261 701.857 964.374 703.926C954.488 705.765 944.601 707.49 934.715 709.099C924.828 710.479 915.861 711.743 907.814 712.893C890.57 715.422 875.51 719.445 862.635 724.963C849.76 730.481 839.758 737.953 832.631 747.379C825.503 756.576 821.939 768.072 821.939 781.866C821.939 801.869 829.182 817.158 843.667 827.734C858.382 838.08 877.005 843.253 899.537 843.253Z" fill="white"/>
<path d="M1298.9 934.643C1282.81 934.643 1269.76 921.599 1269.76 905.508V434.06C1269.76 417.969 1282.81 404.925 1298.9 404.925H1383.06C1399.15 404.925 1412.2 417.969 1412.2 434.06V494.194C1412.2 495.937 1413.61 497.35 1415.35 497.35C1416.76 497.35 1417.99 496.423 1418.4 495.084C1428.13 463.329 1444.11 439.254 1466.35 422.858C1489.11 405.845 1515.32 397.338 1544.98 397.338C1552.33 397.338 1560.27 397.798 1568.77 398.718C1582.07 400.154 1591.19 411.89 1591.19 425.259V503.692C1591.19 518.235 1576.98 529.258 1562.57 527.353C1550.38 525.744 1539.23 524.939 1529.11 524.939C1507.5 524.939 1488.19 529.653 1471.17 539.079C1454.39 548.275 1441.05 561.151 1431.17 577.704C1421.51 594.258 1416.68 613.341 1416.68 634.952V905.508C1416.68 921.599 1403.64 934.643 1387.55 934.643H1298.9Z" fill="white"/>
<path d="M1851.48 723.744C1833.74 743.998 1800.37 731.416 1800.43 704.492L1800.59 620.573C1800.61 612.511 1807.15 605.983 1815.21 605.983C1819.52 605.983 1823.6 604.084 1826.38 600.793L1982.95 415.27C1988.49 408.71 1996.63 404.925 2005.22 404.925H2097.02C2121.91 404.925 2135.34 434.106 2119.16 453.008L1941.08 660.978C1935.55 667.442 1927.46 671.164 1918.95 671.164H1910.74C1902.35 671.164 1894.36 674.786 1888.82 681.103L1851.48 723.744ZM1696.29 934.643C1680.2 934.643 1667.15 921.599 1667.15 905.508V257.487C1667.15 241.396 1680.2 228.353 1696.29 228.353H1784.93C1801.02 228.353 1814.07 241.396 1814.07 257.487V905.509C1814.07 921.599 1801.02 934.643 1784.93 934.643H1696.29ZM2013.71 934.643C2004.03 934.643 1994.99 929.838 1989.57 921.819L1855.41 723.26C1847.78 711.959 1849 696.875 1858.36 686.955L1915.54 626.36C1928.27 612.86 1950.22 614.553 1960.74 629.846L2138.94 889.001C2152.24 908.331 2138.4 934.643 2114.94 934.643H2013.71Z" fill="white"/>
<path d="M2738.43 944.989C2683.94 944.989 2637.04 933.953 2597.72 911.882C2558.63 889.58 2528.51 858.082 2507.36 817.388C2486.21 776.463 2475.63 728.067 2475.63 672.198C2475.63 617.709 2486.21 569.887 2507.36 528.733C2528.51 487.579 2558.29 455.506 2596.68 432.515C2635.31 409.523 2680.61 398.028 2732.57 398.028C2767.51 398.028 2800.05 403.661 2830.17 414.926C2860.52 425.962 2886.96 442.631 2909.49 464.932C2932.25 487.234 2949.96 515.283 2962.6 549.08C2975.25 582.647 2981.57 621.962 2981.57 667.025V678.24C2981.57 694.331 2968.52 707.375 2952.43 707.375H2563.4C2547.31 707.375 2534.26 694.331 2534.26 678.24V645.464C2534.26 629.373 2547.31 616.329 2563.4 616.329H2814.14C2830.23 616.329 2843.76 603.098 2840.07 587.436C2837.77 577.681 2834.24 568.574 2829.48 560.116C2820.28 543.792 2807.52 531.032 2791.2 521.836C2775.1 512.409 2756.36 507.696 2734.98 507.696C2712.68 507.696 2692.91 512.869 2675.66 523.215C2658.65 533.331 2645.31 547.011 2635.66 564.254C2626 581.268 2621.06 600.236 2620.83 621.158V707.72C2620.83 733.93 2625.65 756.576 2635.31 775.659C2645.2 794.741 2659.11 809.456 2677.04 819.802C2694.98 830.148 2716.24 835.321 2740.84 835.321C2757.17 835.321 2772.11 833.022 2785.68 828.424C2799.24 823.825 2810.85 816.928 2820.51 807.731C2825.14 803.328 2829.23 798.449 2832.8 793.097C2839.91 782.439 2851.31 774.51 2864.1 775.354L2944.93 780.688C2962.63 781.856 2975.37 798.57 2968.81 815.047C2961.01 834.626 2950.09 852.42 2936.05 868.428C2914.89 892.569 2887.53 911.422 2853.96 924.987C2820.63 938.322 2782.11 944.989 2738.43 944.989Z" fill="white"/>
<path d="M3318.86 944.989C3264.37 944.989 3217.47 933.953 3178.15 911.882C3139.06 889.58 3108.94 858.082 3087.79 817.388C3066.64 776.463 3056.06 728.067 3056.06 672.198C3056.06 617.709 3066.64 569.887 3087.79 528.733C3108.94 487.579 3138.72 455.506 3177.12 432.515C3215.74 409.523 3261.04 398.028 3313 398.028C3347.95 398.028 3380.48 403.661 3410.6 414.926C3440.95 425.962 3467.39 442.631 3489.92 464.932C3512.68 487.234 3530.39 515.283 3543.03 549.08C3555.68 582.647 3562 621.962 3562 667.025V678.24C3562 694.331 3548.96 707.375 3532.86 707.375H3143.83C3127.74 707.375 3114.69 694.331 3114.69 678.24V645.464C3114.69 629.373 3127.74 616.329 3143.83 616.329H3394.57C3410.66 616.329 3424.19 603.098 3420.5 587.436C3418.2 577.681 3414.67 568.574 3409.91 560.116C3400.71 543.792 3387.95 531.032 3371.63 521.836C3355.53 512.409 3336.79 507.696 3315.41 507.696C3293.11 507.696 3273.34 512.869 3256.09 523.215C3239.08 533.331 3225.74 547.011 3216.09 564.254C3206.43 581.268 3201.49 600.236 3201.26 621.158V707.72C3201.26 733.93 3206.09 756.576 3215.74 775.659C3225.63 794.741 3239.54 809.456 3257.47 819.802C3275.41 830.148 3296.67 835.321 3321.27 835.321C3337.6 835.321 3352.54 833.022 3366.11 828.424C3379.67 823.825 3391.29 816.928 3400.94 807.731C3405.57 803.328 3409.66 798.449 3413.23 793.097C3420.34 782.439 3431.74 774.51 3444.53 775.354L3525.36 780.688C3543.06 781.856 3555.8 798.57 3549.24 815.047C3541.44 834.626 3530.52 852.42 3516.48 868.428C3495.32 892.569 3467.96 911.422 3434.39 924.987C3401.06 938.322 3362.55 944.989 3318.86 944.989Z" fill="white"/>
<path d="M2381.33 903.453C2381.33 926.138 2368.31 944.527 2352.25 944.528H2263.76C2247.7 944.527 2234.68 926.138 2234.68 903.453V396.09L2381.33 353.988V903.453Z" fill="white"/>
<path d="M2352.25 197.714C2368.31 197.714 2381.33 216.104 2381.33 238.789V304.113L2234.68 346.18V238.789C2234.68 216.104 2247.7 197.714 2263.76 197.714H2352.25Z" fill="white"/>
<path d="M0 583.921C0 664.477 15.0069 731.448 45.0208 784.836C75.0346 838.224 117.37 878.344 172.027 905.196C226.367 931.732 290.344 945 363.957 945H544.614C568.638 945 588.113 925.525 588.113 901.502V295.719C588.113 116.071 588.113 198.57 588.113 198.57L400.195 252.438C325.635 252.438 210.571 265.015 158.757 290.603C106.944 316.191 67.6101 353.626 40.7556 402.907C13.5852 452.188 0 512.526 0 583.921ZM194.3 590.555C194.3 548.539 199.987 513.79 211.361 486.306C222.418 458.507 239.163 437.815 261.594 424.231C284.026 410.331 312.302 403.381 346.423 403.381H357.422C381.446 403.381 400.922 422.856 400.922 446.879V749.768C400.922 772.8 382.25 791.47 359.218 791.47C302.35 791.47 260.646 775.043 234.108 742.189C207.569 709.019 194.3 658.474 194.3 590.555Z" fill="white"/>
<path d="M544.614 0C568.638 1.12098e-06 588.113 19.4748 588.113 43.4982V135.21L400.195 188.868V43.4982C400.195 19.4748 419.671 0 443.695 0H544.614Z" fill="white"/>
</mask>
<g mask="url(#mask0_36_224)">
<rect x="-15" y="-28" width="3668" height="973" fill="url(#paint0_linear_36_224)"/>
</g>
<defs>
<linearGradient id="paint0_linear_36_224" x1="-15" y1="458.5" x2="3653" y2="458.5" gradientUnits="userSpaceOnUse">
<stop stop-color="#FF8D28"/>
<stop offset="1" stop-color="#8B5CF6"/>
</linearGradient>
</defs>
</svg>
