<svg width="1352" height="2173" viewBox="0 0 1352 2173" fill="none" xmlns="http://www.w3.org/2000/svg">
<path d="M0 1342.4C0 1527.6 34.4991 1681.56 103.497 1804.3C172.495 1927.03 269.819 2019.27 395.468 2081C520.391 2142 667.466 2172.5 836.693 2172.5H1252C1307.23 2172.5 1352 2127.73 1352 2072.5V679.841C1352 266.841 1352 456.501 1352 456.501L920 580.341C748.594 580.341 484.076 609.254 364.964 668.08C245.851 726.907 155.427 812.967 93.6922 926.262C31.2307 1039.56 0 1178.27 0 1342.4ZM446.672 1357.65C446.672 1261.06 459.745 1181.18 485.892 1117.99C511.312 1054.08 549.806 1006.51 601.373 975.284C652.94 943.329 717.943 927.351 796.383 927.351H821.669C876.898 927.351 921.669 972.123 921.669 1027.35V1723.68C921.669 1776.62 878.747 1819.55 825.798 1819.55C695.065 1819.55 599.194 1781.78 538.185 1706.25C477.176 1630 446.672 1513.8 446.672 1357.65Z" fill="#F77F03"/>
<path d="M1252 0C1307.23 2.57706e-06 1352 44.7715 1352 100V310.841L920 434.196V100C920 44.7715 964.772 0 1020 0H1252Z" fill="#F77F03"/>
</svg>
